Patient4_TMGait_0pt4_01_right_27_EMG.mot
version=1
nRows=23
nColumns=33
inDegrees=no
endheader
time	1LAddLong	2LGlutMax	3LGlutMed	4LIliopsoas	5LSemiMemb	6LBicFemLong	7LRecFem	8LVastMed	9LVastLat	10LGasMed	11LTibAnt	12lTibPost	13LPeroneusLong	14LSol	15LExtDigLong	16LFlexDigLong	17RAddLong	18RGlutMax	19RGlutMed	20RIliopsoas	21RSemiMemb	22RBicFemLong	23RRecFem	24RVastMed	25RVastLat	26RGasMed	27RTibAnt	28RTibPost	29RPeroneusLong	30RSol	31RExtDigLong	32RFlexDigLong
34.82	0.010834	-0.003357	0.10422	-0.006866	0.010986	-0.08255	0.019073	-0.011139	-0.028534	0.21439	0.025787	0.000153	0.15945	-0.098724	-0.006104	-0.037994	-0.017853	-0.11398	-0.21408	0.008087	0.010529	-0.19348	0.029755	-0.075226	0.005493	-0.014648	-0.1857	-0.007477	0.26672	0.017853	0.000458	-0.00885
34.821	0.012207	-0.035248	0.054321	0.002136	0.007935	-0.09491	0.06485	-0.00351	-0.050659	-0.073395	0.027924	-0.074921	0.036316	-0.054932	0.025024	0.044708	-0.002899	-0.10162	0.17716	0.014343	-0.016327	-0.12619	0.00351	-0.12329	-0.001831	-0.018005	-0.063324	-0.002747	0.30411	0.086212	-0.00061	-0.007629
34.822	0.002899	-0.041962	0.029755	0.000916	0.005798	-0.15305	0.065765	0.001373	-0.048523	0.11871	0.039978	-0.04364	0.099182	-0.22125	0.002747	-0.027771	-0.010834	-0.11276	0.53741	-0.00885	-0.065308	-0.011139	0.01709	-0.099335	-0.005798	-0.016785	0.2858	-0.006714	0.11856	0.009155	-0.000916	-0.000458
34.823	0.006714	-0.050354	0.071869	0.006104	0.010529	-0.15366	0.065765	0.012054	-0.061951	-0.025787	0.034485	-0.035706	0.065765	-0.033264	0.005798	-0.06485	0.005341	-0.17227	0.59372	0.014801	-0.10834	0.046387	0.031433	-0.10483	0.003052	-0.024567	0.49622	-0.003052	0.11246	-0.015564	-0.000305	-0.00412
34.824	0.005646	-0.020905	0.087128	0.007782	0.010681	-0.18524	-0.032654	0.007019	-0.059662	-0.43808	0.025024	-0.050659	0.26733	0.31342	0.023804	-0.10971	0.015869	-0.14786	0.41779	-0.020447	-0.12085	0.045776	0.044098	-0.10483	0.00473	-0.028076	0.62302	-0.004578	0.057678	-0.013123	-0.000305	0.003357
34.825	0.005188	-0.005951	0.10162	0.014191	0.010681	-0.17014	-0.030212	-0.001526	-0.062256	-0.68222	0.020142	-0.028992	0.076447	0.28717	0.029602	-0.14084	0.016785	-0.15854	0.23758	-0.016632	-0.10132	0.057678	-0.023499	-0.072632	0.007782	-0.024109	0.10117	-0.002441	0.064545	-0.014801	-0.007782	0.007324
34.826	0.010223	-0.011902	0.072632	-0.013733	0.003967	-0.12146	-0.046387	0.005188	0.025177	0.26062	0.015411	-0.032654	0.061798	-0.12024	0.032043	-0.04303	0.018616	-0.09903	-0.24674	0.020294	-0.002136	0.059814	-0.022888	-0.093079	0.01236	-0.037689	-0.43808	-0.003815	-0.01358	-0.043182	-0.002899	-0.002594
34.827	0.004425	-0.024872	-0.011139	-0.003357	0.00473	-0.062256	-0.023499	-0.001221	0.075531	0.94437	0.015411	-0.023651	0.078125	-0.093689	0.064087	-0.012665	-0.003967	-0.045776	-0.28976	0.028992	0.14572	0.066528	-0.014496	-0.086517	0.023499	-0.041199	-0.14618	-0.008087	-0.04425	0.005188	0.000305	0.002747
34.828	0.00351	-0.037537	-0.088348	-0.007782	0.005035	-0.058136	0.037537	-0.00351	0.020294	0.9227	0.013428	-0.024567	0.00824	0.19134	0.057831	-0.000305	-0.015717	-0.027161	-0.14221	-0.014954	0.12909	0.057831	0.006561	-0.094452	0.00824	-0.039825	0.072479	-0.001373	-0.010071	0.001526	0.007629	0.005798
34.829	-0.058289	-0.082245	-0.17181	-0.014648	0.007324	-0.048523	0.020294	0.005646	0.017242	0.57602	0.015564	-0.033722	0.025024	0.30182	0.016022	0.010681	-0.020142	-0.06958	-0.046539	0.012665	0.043182	0.14206	-0.018616	-0.085144	0.00946	-0.03952	-0.013428	-0.005341	-0.050354	-0.072021	0.001984	-0.000763
34.83	0.070038	-0.10117	-0.13428	-0.019379	0.011139	-0.042419	0.031738	0.010071	0.058746	-0.16098	0.028381	-0.012817	-0.007324	0.30243	-0.030823	-0.028076	-0.02594	-0.10696	-0.26306	0.049744	-0.082397	0.20233	-0.058289	-0.050812	0.020599	-0.037231	0.13168	-0.005493	-0.027313	-0.074158	-0.001373	-0.000458
34.831	-0.090637	-0.11398	-0.079041	-0.012054	0.014038	-0.025787	-0.029602	-0.00351	0.083313	-0.54733	0.019073	0.016785	-0.15259	-0.052948	-0.036469	-0.005798	-0.019073	-0.13214	-0.34515	-0.032501	-0.075989	0.1976	0.001373	-0.054474	0.019684	-0.030823	0.1471	-0.005341	0.045624	-0.070343	-0.008392	0.002441
34.832	0.066528	-0.093842	-0.039673	-0.01358	0.006866	0.015717	0.01358	0.003662	0.084076	-0.38086	0.018921	0.003967	-0.20645	-0.23834	-0.001831	-0.016174	0.005035	-0.06134	-0.22812	-0.077362	-0.058899	0.22736	0.025024	-0.0914	0.017853	-0.033569	-0.036011	-0.004578	0.11978	-0.06134	0	0.002441
34.833	0.013885	-0.081787	0.009766	0.006866	0.005646	0.053253	-0.004425	0.007019	0.11108	-0.034485	0.027161	-0.012817	-0.20523	-0.20325	0.018921	-0.032349	0.012817	0.043335	-0.09201	-0.053101	-0.08606	0.1709	-0.006561	-0.084229	0.01297	-0.037842	0.064545	-0.005035	0.031128	0.018616	-0.001984	-0.004272
34.834	-0.003204	-0.081177	0.030212	0.008698	0.007324	0.055389	0.018616	0.005188	0.1207	0.31494	0.023041	-0.06546	-0.060577	-0.17899	0.021057	-0.067902	0.016785	-0.050201	-0.25055	-0.009918	-0.1149	0.13214	-0.017242	-0.1297	0.013123	-0.036316	0.094757	0.001984	0.030975	0.071564	0.001678	0.001984
34.835	-0.011444	-0.059204	-0.010986	-0.006104	0.009613	0.04776	0.045624	0.013275	0.087585	-0.33356	0.005951	0.093842	0.10559	0.14297	0.027161	-0.10407	0.022125	-0.056915	0.00885	-0.015106	0.048218	0.14313	-0.023041	-0.11734	0.002289	-0.036316	0.033875	-0.007477	-0.014191	0.04837	-0.005493	0.004425
34.836	0.000916	-0.045624	-0.03479	-0.000305	0.009613	0.001831	0.05249	0.006409	0.063324	-1.1356	0.00824	0.080566	0.089111	-0.028687	-0.022736	-0.076599	-0.014343	-0.071869	0.16754	0.018158	0.14053	0.14954	-0.059357	-0.062103	0.009613	-0.033417	0.089417	-0.005188	-0.075836	0.028839	0	-0.00351
34.837	0.003204	-0.060883	-0.063934	-0.001068	0.005188	-0.090637	0.050964	0.007782	0.072327	-0.69519	0.014038	-0.032654	-0.03952	-0.26718	0.016022	0.070038	-0.009766	-0.11902	0.059509	0.035858	0.014954	0.13611	-0.085754	-0.042419	0.010529	-0.031891	0.2124	-0.003204	-0.14725	-0.048981	-0.003967	-0.006561
34.838	0.004883	-0.070038	-0.005646	0.005341	0.007019	-0.097351	0.053406	0.011292	0.10208	-0.36835	0.019379	0.009308	-0.090637	-0.14832	0.024719	0.15259	-0.01358	-0.099792	0.054321	0.049133	-0.11246	0.19959	-0.063324	-0.026855	-0.000458	-0.024414	-0.34592	-0.001831	-0.010834	-0.069122	-0.004272	-0.013123
34.839	0.004425	-0.035248	0.070953	0.014954	0.00885	-0.081329	0.041046	0.030975	0.10071	-0.17273	0.042419	0.032043	-0.088806	0.032043	0.017853	0.070343	-0.027161	-0.05722	0.018311	-0.003052	0.085754	0.24445	-0.056	-0.028839	0.019073	-0.016937	-0.33066	-0.002747	0.068665	-0.058289	-0.000916	-0.010071
34.84	0.005035	-0.059052	0.052643	0.003204	0.007935	-0.053558	0.006561	0.023346	0.050812	-0.094147	0.063782	0.028381	-0.11047	0.31952	0.02533	0.032043	-0.003815	-0.070496	-0.088654	-0.016327	0.08255	0.24231	-0.06073	-0.011444	0.013428	-0.016479	0.047455	-0.001831	0.08194	-0.064545	0.000763	-0.006561
34.841	-0.001984	-0.063019	0.042114	0.01358	0.003815	-0.036926	-0.006561	0.013885	0.13687	-0.13748	0.023193	0.00473	-0.072632	0.42419	-0.016937	0.010986	0.017853	-0.023041	-0.10132	0.003967	0.065613	0.25284	-0.062561	-0.019531	0.006561	-0.009308	-0.0914	-0.001373	0.10147	-0.055389	0.00061	-0.011902
34.842	0.006256	-0.060883	0.006561	-0.01236	0.018311	0.018005	0.026398	0.014038	0.073547	-0.08255	-0.011444	-0.010376	-0.033112	0.28809	0.028687	0.007324	0.02594	-0.079498	-0.24216	0.021667	-0.014191	0.20721	-0.063934	-0.038452	-0.002747	-0.004883	-0.19104	-0.001831	0.13123	-0.001068	0	-0.016327
